<svg width="23" height="22" viewBox="0 0 23 22" fill="none" xmlns="http://www.w3.org/2000/svg">
<path id="Vector" d="M0 1.45455C0 1.20138 0.100967 0.958592 0.28069 0.77958C0.460412 0.600568 0.704168 0.5 0.958333 0.5H22.0417C22.2958 0.5 22.5396 0.600568 22.7193 0.77958C22.899 0.958592 23 1.20138 23 1.45455C23 1.70771 22.899 1.9505 22.7193 2.12951C22.5396 2.30852 22.2958 2.40909 22.0417 2.40909H0.958333C0.704168 2.40909 0.460412 2.30852 0.28069 2.12951C0.100967 1.9505 0 1.70771 0 1.45455ZM0 11C0 10.7468 0.100967 10.504 0.28069 10.325C0.460412 10.146 0.704168 10.0455 0.958333 10.0455H22.0417C22.2958 10.0455 22.5396 10.146 22.7193 10.325C22.899 10.504 23 10.7468 23 11C23 11.2532 22.899 11.496 22.7193 11.675C22.5396 11.854 22.2958 11.9545 22.0417 11.9545H0.958333C0.704168 11.9545 0.460412 11.854 0.28069 11.675C0.100967 11.496 0 11.2532 0 11ZM0.958333 19.5909C0.704168 19.5909 0.460412 19.6915 0.28069 19.8705C0.100967 20.0495 0 20.2923 0 20.5455C0 20.7986 0.100967 21.0414 0.28069 21.2204C0.460412 21.3994 0.704168 21.5 0.958333 21.5H22.0417C22.2958 21.5 22.5396 21.3994 22.7193 21.2204C22.899 21.0414 23 20.7986 23 20.5455C23 20.2923 22.899 20.0495 22.7193 19.8705C22.5396 19.6915 22.2958 19.5909 22.0417 19.5909H0.958333Z" fill="white"/>
</svg>
