<svg width="24" height="24" viewBox="0 0 24 24" fill="none" xmlns="http://www.w3.org/2000/svg">
<g clip-path="url(#clip0_234_228)">
<path d="M7.63644 10.9089C7.34711 10.9089 7.06964 11.0239 6.86505 11.2285C6.66047 11.433 6.54553 11.7105 6.54553 11.9998C6.54553 12.2892 6.66047 12.5666 6.86505 12.7712C7.06964 12.9758 7.34711 13.0908 7.63644 13.0908H16.3637C16.653 13.0908 16.9305 12.9758 17.1351 12.7712C17.3397 12.5666 17.4546 12.2892 17.4546 11.9998C17.4546 11.7105 17.3397 11.433 17.1351 11.2285C16.9305 11.0239 16.653 10.9089 16.3637 10.9089H7.63644Z" fill="#233249"/>
<path fill-rule="evenodd" clip-rule="evenodd" d="M24 12C24 18.6273 18.6273 24 12 24C5.37273 24 0 18.6273 0 12C0 5.37273 5.37273 0 12 0C18.6273 0 24 5.37273 24 12ZM21.8182 12C21.8182 13.2893 21.5642 14.5661 21.0708 15.7573C20.5774 16.9485 19.8542 18.0308 18.9425 18.9425C18.0308 19.8542 16.9485 20.5774 15.7573 21.0708C14.5661 21.5642 13.2893 21.8182 12 21.8182C10.7107 21.8182 9.43394 21.5642 8.24274 21.0708C7.05155 20.5774 5.9692 19.8542 5.0575 18.9425C4.14579 18.0308 3.42259 16.9485 2.92918 15.7573C2.43577 14.5661 2.18182 13.2893 2.18182 12C2.18182 9.39606 3.21623 6.89876 5.0575 5.0575C6.89876 3.21623 9.39606 2.18182 12 2.18182C14.6039 2.18182 17.1012 3.21623 18.9425 5.0575C20.7838 6.89876 21.8182 9.39606 21.8182 12Z" fill="#233249"/>
</g>
<defs>
<clipPath id="clip0_234_228">
<rect width="24" height="24" fill="white"/>
</clipPath>
</defs>
</svg>
