<svg width="24" height="24" viewBox="0 0 24 24" fill="none" xmlns="http://www.w3.org/2000/svg">
<g clip-path="url(#clip0_234_214)">
<path fill-rule="evenodd" clip-rule="evenodd" d="M0 12C0 5.3724 5.3724 0 12 0C18.6276 0 24 5.3724 24 12C24 18.6276 18.6276 24 12 24C5.3724 24 0 18.6276 0 12ZM12 2.4C9.45392 2.4 7.01212 3.41143 5.21178 5.21178C3.41143 7.01212 2.4 9.45392 2.4 12C2.4 14.5461 3.41143 16.9879 5.21178 18.7882C7.01212 20.5886 9.45392 21.6 12 21.6C14.5461 21.6 16.9879 20.5886 18.7882 18.7882C20.5886 16.9879 21.6 14.5461 21.6 12C21.6 9.45392 20.5886 7.01212 18.7882 5.21178C16.9879 3.41143 14.5461 2.4 12 2.4Z" fill="#233249"/>
<path fill-rule="evenodd" clip-rule="evenodd" d="M13.2 6.00005C13.2 5.68179 13.0736 5.37656 12.8486 5.15152C12.6235 4.92648 12.3183 4.80005 12 4.80005C11.6818 4.80005 11.3766 4.92648 11.1515 5.15152C10.9265 5.37656 10.8 5.68179 10.8 6.00005V10.8H6.00005C5.68179 10.8 5.37656 10.9265 5.15152 11.1515C4.92648 11.3766 4.80005 11.6818 4.80005 12C4.80005 12.3183 4.92648 12.6235 5.15152 12.8486C5.37656 13.0736 5.68179 13.2 6.00005 13.2H10.8V18C10.8 18.3183 10.9265 18.6235 11.1515 18.8486C11.3766 19.0736 11.6818 19.2 12 19.2C12.3183 19.2 12.6235 19.0736 12.8486 18.8486C13.0736 18.6235 13.2 18.3183 13.2 18V13.2H18C18.3183 13.2 18.6235 13.0736 18.8486 12.8486C19.0736 12.6235 19.2 12.3183 19.2 12C19.2 11.6818 19.0736 11.3766 18.8486 11.1515C18.6235 10.9265 18.3183 10.8 18 10.8H13.2V6.00005Z" fill="#233249"/>
</g>
<defs>
<clipPath id="clip0_234_214">
<rect width="24" height="24" fill="white"/>
</clipPath>
</defs>
</svg>
