<svg width="36" height="37" viewBox="0 0 36 37" fill="none" xmlns="http://www.w3.org/2000/svg">
<g id="gg:profile">
<g id="Group">
<path id="Vector" fill-rule="evenodd" clip-rule="evenodd" d="M24 13.738C24 15.3293 23.3679 16.8555 22.2426 17.9807C21.1174 19.1059 19.5913 19.738 18 19.738C16.4087 19.738 14.8826 19.1059 13.7574 17.9807C12.6321 16.8555 12 15.3293 12 13.738C12 12.1467 12.6321 10.6206 13.7574 9.4954C14.8826 8.37018 16.4087 7.73804 18 7.73804C19.5913 7.73804 21.1174 8.37018 22.2426 9.4954C23.3679 10.6206 24 12.1467 24 13.738ZM21 13.738C21 14.5337 20.6839 15.2967 20.1213 15.8594C19.5587 16.422 18.7956 16.738 18 16.738C17.2043 16.738 16.4413 16.422 15.8787 15.8594C15.3161 15.2967 15 14.5337 15 13.738C15 12.9424 15.3161 12.1793 15.8787 11.6167C16.4413 11.0541 17.2043 10.738 18 10.738C18.7956 10.738 19.5587 11.0541 20.1213 11.6167C20.6839 12.1793 21 12.9424 21 13.738Z" fill="#233249"/>
<path id="Vector_2" fill-rule="evenodd" clip-rule="evenodd" d="M18 1.73804C8.8875 1.73804 1.5 9.12554 1.5 18.238C1.5 27.3505 8.8875 34.738 18 34.738C27.1125 34.738 34.5 27.3505 34.5 18.238C34.5 9.12554 27.1125 1.73804 18 1.73804ZM4.5 18.238C4.5 21.373 5.5695 24.259 7.362 26.551C8.62116 24.8982 10.2452 23.5587 12.1075 22.6371C13.9697 21.7155 16.0197 21.2367 18.0975 21.238C20.1486 21.2356 22.1731 21.7017 24.0167 22.6006C25.8603 23.4995 27.4742 24.8076 28.7355 26.425C30.0352 24.7204 30.9103 22.7309 31.2883 20.6209C31.6664 18.511 31.5366 16.3413 30.9097 14.2915C30.2828 12.2417 29.1768 10.3706 27.6832 8.83309C26.1896 7.29558 24.3514 6.13583 22.3206 5.4498C20.2898 4.76377 18.1248 4.57119 16.0048 4.888C13.8848 5.2048 11.8707 6.02187 10.1292 7.27162C8.38762 8.52136 6.96872 10.1678 5.98984 12.0748C5.01097 13.9818 4.50027 16.0945 4.5 18.238ZM18 31.738C14.9009 31.7431 11.8952 30.6769 9.492 28.72C10.4592 27.335 11.7468 26.2041 13.2451 25.4237C14.7434 24.6434 16.4081 24.2366 18.0975 24.238C19.7658 24.2366 21.4103 24.6332 22.8945 25.395C24.3787 26.1568 25.6596 27.2617 26.631 28.618C24.2092 30.6385 21.154 31.743 18 31.738Z" fill="#233249"/>
</g>
</g>
</svg>
