<svg width="13" height="10" viewBox="0 0 13 10" fill="none" xmlns="http://www.w3.org/2000/svg">
<g id="heroicons:ticket" clip-path="url(#clip0_207_584)">
<path id="Vector" d="M9.37505 1.60005V2.02505M9.37505 3.72505V4.15005M9.37505 5.85005V6.27505M9.37505 7.97505V8.40005M4.27505 5.42505H7.25005M4.27505 6.70005H5.97505M1.93755 1.17505C1.58565 1.17505 1.30005 1.46065 1.30005 1.81255V3.52728C1.55887 3.6763 1.77385 3.8909 1.92334 4.14945C2.07282 4.40801 2.15152 4.70139 2.15152 5.00005C2.15152 5.29871 2.07282 5.59209 1.92334 5.85064C1.77385 6.1092 1.55887 6.3238 1.30005 6.47282V8.18755C1.30005 8.53945 1.58565 8.82505 1.93755 8.82505H11.7125C12.0644 8.82505 12.35 8.53945 12.35 8.18755V6.47282C12.0912 6.3238 11.8762 6.1092 11.7268 5.85064C11.5773 5.59209 11.4986 5.29871 11.4986 5.00005C11.4986 4.70139 11.5773 4.40801 11.7268 4.14945C11.8762 3.8909 12.0912 3.6763 12.35 3.52728V1.81255C12.35 1.46065 12.0644 1.17505 11.7125 1.17505H1.93755Z" stroke="#233249" stroke-linecap="round" stroke-linejoin="round"/>
</g>
<defs>
<clipPath id="clip0_207_584">
<rect width="13" height="10" fill="white"/>
</clipPath>
</defs>
</svg>
